<svg xmlns="http://www.w3.org/2000/svg" viewBox="0 0 48 48" width="48" height="48">
  <g transform="translate(6.75,6.75) scale(0.5625)">
    <path d="m 25.92,35.01 c 0,-0.52 -0.42,-0.94 -0.94,-0.94 H 3.95 C 2.8,34.07 1.88,33.14 1.88,32 V 3.95 C 1.88,2.8 2.8,1.88 3.95,1.88 H 32 c 1.14,0 2.07,0.93 2.07,2.07 v 21.04 c 0,0.52 0.42,0.94 0.94,0.94 0.52,0 0.94,-0.42 0.94,-0.94 V 3.95 C 35.95,1.77 34.18,0 32,0 H 3.95 C 1.77,0 0,1.77 0,3.95 V 32 c 0,2.18 1.77,3.95 3.95,3.95 h 21.04 c 0.52,0 0.94,-0.42 0.94,-0.94 z" fill="#eeeeee"/>
    <path d="m 60.05,28.05 h -8.02 c -0.52,0 -0.94,0.42 -0.94,0.94 0,0.52 0.42,0.94 0.94,0.94 h 8.02 c 1.14,0 2.07,0.93 2.07,2.07 v 28.05 c 0,1.14 -0.93,2.07 -2.07,2.07 H 32 c -1.14,0 -2.07,-0.93 -2.07,-2.07 V 32 c 0,-1.14 0.93,-2.07 2.07,-2.07 h 16.03 c 0.52,0 0.94,-0.42 0.94,-0.94 0,-0.52 -0.42,-0.94 -0.94,-0.94 H 32 c -2.18,0 -3.95,1.77 -3.95,3.95 V 60.05 C 28.05,62.23 29.82,64 32,64 H 60.05 C 62.23,64 64,62.23 64,60.05 V 32 c 0,-2.18 -1.77,-3.95 -3.95,-3.95 z" fill="#eeeeee"/>
    <path d="M 26.99,10.02 H 18.91 V 8.95 c 0,-0.52 -0.42,-0.94 -0.94,-0.94 -0.52,0 -0.94,0.42 -0.94,0.94 v 1.07 H 8.95 c -0.52,0 -0.94,0.42 -0.94,0.94 0,0.52 0.42,0.94 0.94,0.94 H 22.76 C 22.22,13.63 20.87,17.13 17.97,20.62 16.2,18.49 15,16.35 14.2,14.58 13.99,14.11 13.44,13.89 12.96,14.11 c -0.47,0.21 -0.68,0.77 -0.47,1.24 0.88,1.96 2.21,4.33 4.21,6.69 -1.42,1.48 -3.14,2.91 -5.23,4.16 -0.45,0.27 -0.59,0.84 -0.32,1.29 0.18,0.29 0.48,0.45 0.8,0.45 0.16,0 0.33,-0.04 0.48,-0.13 2.21,-1.32 4.03,-2.84 5.53,-4.38 1.51,1.55 3.34,3.06 5.53,4.38 0.15,0.09 0.32,0.13 0.48,0.13 0.32,0 0.63,-0.16 0.8,-0.45 0.27,-0.45 0.12,-1.02 -0.32,-1.29 -2.08,-1.25 -3.81,-2.68 -5.23,-4.16 1.47,-1.73 2.55,-3.44 3.32,-4.86 1.25,-2.31 1.88,-4.25 2.16,-5.27 h 2.27 c 0.52,0 0.94,-0.42 0.94,-0.94 0,-0.52 -0.42,-0.94 -0.94,-0.94 z" fill="#eeeeee"/>
    <path d="m 47.3,36.91 c -0.21,-0.51 -0.7,-0.83 -1.25,-0.83 -0.55,0 -1.04,0.33 -1.25,0.84 l -6.77,17.78 c -0.18,0.48 0.06,1.03 0.54,1.21 0.11,0.04 0.22,0.06 0.33,0.06 0.38,0 0.73,-0.23 0.88,-0.61 L 41.24,51.55 h 9.59 l 1.44,3.82 c 0.18,0.48 0.73,0.73 1.21,0.54 0.48,-0.18 0.73,-0.72 0.54,-1.21 z m -5.35,12.77 4.1,-10.77 4.06,10.77 z" fill="#eeeeee"/>
    <path d="m 25.55,51.29 -4.01,-3 c -0.41,-0.31 -1,-0.23 -1.31,0.19 -0.31,0.41 -0.23,1 0.19,1.31 l 1.76,1.32 h -3.2 c -3.35,0 -6.07,-2.73 -6.07,-6.07 v -6.01 c 0,-0.52 -0.42,-0.94 -0.94,-0.94 -0.52,0 -0.94,0.42 -0.94,0.94 v 6.01 c 0,4.38 3.57,7.95 7.95,7.95 h 3.2 l -1.76,1.32 c -0.41,0.31 -0.5,0.9 -0.19,1.31 0.19,0.25 0.47,0.38 0.75,0.38 0.2,0 0.39,-0.06 0.56,-0.19 l 4.01,-3.01 c 0.24,-0.18 0.38,-0.45 0.38,-0.75 0,-0.29 -0.14,-0.57 -0.38,-0.75 z" fill="#eeeeee"/>
    <path d="m 38.45,12.71 4.01,3 c 0.17,0.13 0.36,0.19 0.56,0.19 0.29,0 0.57,-0.13 0.75,-0.38 0.31,-0.41 0.23,-1 -0.19,-1.31 l -1.76,-1.32 h 3.2 c 3.35,0 6.07,2.73 6.07,6.07 v 6.01 c 0,0.52 0.42,0.94 0.94,0.94 0.52,0 0.94,-0.42 0.94,-0.94 v -6.01 c 0,-4.38 -3.57,-7.95 -7.95,-7.95 H 41.83 L 43.59,9.7 C 44,9.39 44.08,8.8 43.77,8.39 43.46,7.98 42.88,7.89 42.46,8.2 l -4.01,3.01 c -0.24,0.18 -0.38,0.45 -0.38,0.75 0,0.29 0.14,0.57 0.38,0.75 z" fill="#eeeeee"/>
  </g>
</svg>
